PathFileType	4	(X/Y/Z)	/Users/itak/Documents/Research/Walk-IL/dataset/trc/00264_00009.trc
DataRate	CameraRate	NumFrames	NumMarkers	Units	OrigDataRate	OrigDataStartFrame	OrigNumFrames
100.000000	100.000000	4	53	mm	100.000000	305	488
Frame#	Time	RPSI			LPSI			L3			STRN			T10			C7			CLAV			RBAK			LBAK			LSHO			LUPA			LAEL			LAOL			LWTS			LWPS			LFRA			LIFD			LHPS			LHTS			RSHO			RUPA			RAEL			RAOL			RWTS			RWPS			RFRA			RIFD			RHTS			RHPS			RBHD			LFHD			RFHD			LBHD			LHIP			RHIP			RASI			LASI			LKNE			LTHI			LANK			LTIP			LTOE			LMT1			LMT5			LHEE			RKNE			RTHI			RANK			RTIP			RTOE			RMT1			RMT5			RHEE			
		X1	Y1	Z1	X2	Y2	Z2	X3	Y3	Z3	X4	Y4	Z4	X5	Y5	Z5	X6	Y6	Z6	X7	Y7	Z7	X8	Y8	Z8	X9	Y9	Z9	X10	Y10	Z10	X11	Y11	Z11	X12	Y12	Z12	X13	Y13	Z13	X14	Y14	Z14	X15	Y15	Z15	X16	Y16	Z16	X17	Y17	Z17	X18	Y18	Z18	X19	Y19	Z19	X20	Y20	Z20	X21	Y21	Z21	X22	Y22	Z22	X23	Y23	Z23	X24	Y24	Z24	X25	Y25	Z25	X26	Y26	Z26	X27	Y27	Z27	X28	Y28	Z28	X29	Y29	Z29	X30	Y30	Z30	X31	Y31	Z31	X32	Y32	Z32	X33	Y33	Z33	X34	Y34	Z34	X35	Y35	Z35	X36	Y36	Z36	X37	Y37	Z37	X38	Y38	Z38	X39	Y39	Z39	X40	Y40	Z40	X41	Y41	Z41	X42	Y42	Z42	X43	Y43	Z43	X44	Y44	Z44	X45	Y45	Z45	X46	Y46	Z46	X47	Y47	Z47	X48	Y48	Z48	X49	Y49	Z49	X50	Y50	Z50	X51	Y51	Z51	X52	Y52	Z52	X53	Y53	Z53	

306	3.05	-318.7865600585938	1024.911987304688	94.63010406494141	-429.5424499511719	1026.676147460938	47.64731216430664	-395.9941711425781	1108.22607421875	69.86429595947266	-297.1543579101562	1301.223022460938	-157.5281982421875	-395.6845092773438	1234.091430664062	76.74168395996094	-372.9256286621094	1497.120361328125	24.86074447631836	-304.1613464355469	1418.174194335938	-129.0370788574219	-337.8942565917969	1353.457153320312	117.4482421875	-482.4386596679688	1461.498657226562	-2.944878578186035	-497.0131225585938	1465.210083007812	-107.1779403686523	-584.1348876953125	1348.253051757812	-113.6259841918945	-604.4644165039062	1138.47802734375	-138.8777618408203	-591.5438232421875	1118.731567382812	-53.64178085327148	-486.9681396484375	923.1282348632812	-216.9330444335938	-567.5737915039062	902.710693359375	-237.8932647705078	-597.6951293945312	1034.772827148438	-175.4657440185547	-480.2599182128906	731.5805053710938	-242.6963348388672	-548.6494140625	817.7271728515625	-260.8824768066406	-481.0802307128906	827.4318237304688	-268.2063903808594	-195.3488311767578	1454.787109375	40.26167678833008	-144.1814422607422	1388.991943359375	84.51591491699219	-115.2903671264648	1109.855712890625	120.9476699829102	-209.1551971435547	1103.26318359375	108.0436019897461	-89.39424133300781	893.0006103515625	-16.97140312194824	-55.98002243041992	880.0897216796875	59.48592758178711	-91.09230041503906	1041.523071289062	103.4806213378906	-87.68889617919922	701.5692749023438	-29.77813339233398	-55.91644668579102	772.994140625	-44.59749984741211	-33.79399490356445	773.1376953125	24.7364559173584	-292.4586181640625	1655.990478515625	0.9121455550193787	-324.6974487304688	1694.745483398438	-220.9456024169922	-228.8801116943359	1691.646240234375	-191.6967315673828	-406.770751953125	1664.832153320312	-81.54853057861328	-522.7737426757812	962.5779418945312	-96.89136505126953	-182.7947692871094	995.1961669921875	38.11361312866211	-184.7814331054688	1036.53515625	-63.82273483276367	-442.8106384277344	1009.652893066406	-173.9410552978516	-477.8901672363281	477.6011352539062	-87.76686859130859	-497.892333984375	622.1878051757812	-105.3166656494141	-606.59716796875	127.6003036499023	233.7360687255859	-546.8948974609375	311.4602355957031	62.45490646362305	-467.6159973144531	39.24406051635742	105.6948394775391	-459.6659240722656	58.78780746459961	178.3736877441406	-566.7846069335938	56.35733032226562	136.5696868896484	-585.99462890625	173.1497650146484	296.8605346679688	-153.7592620849609	526.1433715820312	-126.1068649291992	-134.6867828369141	784.1802978515625	-55.45957946777344	-172.3819427490234	31.07332229614258	-90.42362213134766	-158.3970336914062	404.42333984375	-152.7784271240234	-163.7772521972656	41.4907341003418	-308.247802734375	-217.961669921875	41.1045036315918	-263.9819946289062	-119.9421539306641	30.64127540588379	-189.8647003173828	-245.4959411621094	35.45822525024414	-46.51752090454102	
307	3.06	-313.0863342285156	1026.402587890625	87.82555389404297	-424.0601806640625	1027.914794921875	41.76536560058594	-390.303955078125	1109.292358398438	63.65350341796875	-293.3532104492188	1302.524291992188	-164.3333129882812	-389.7874755859375	1235.162109375	70.49789428710938	-367.6968688964844	1498.25146484375	18.81734466552734	-300.1419677734375	1419.414672851562	-135.6458587646484	-331.8403625488281	1354.498046875	110.9850158691406	-477.3222351074219	1462.651123046875	-8.101772308349609	-492.8307800292969	1466.5693359375	-112.1950149536133	-580.2491455078125	1349.690307617188	-117.5240325927734	-601.4766845703125	1139.852172851562	-141.2204437255859	-587.4982299804688	1120.804321289062	-56.00492477416992	-488.1261291503906	921.7588500976562	-218.1304626464844	-569.3900146484375	901.8489990234375	-237.038330078125	-596.6321411132812	1035.474853515625	-176.4132232666016	-484.3303527832031	729.4576416015625	-239.6885681152344	-551.9554443359375	816.0961303710938	-258.4725646972656	-484.4609680175781	824.7273559570312	-267.3521423339844	-190.0075378417969	1455.97998046875	32.79905319213867	-138.4450531005859	1390.309692382812	76.67546844482422	-108.9278793334961	1111.176147460938	112.9387054443359	-202.8957366943359	1104.476928710938	100.7767562866211	-83.84735107421875	895.0947875976562	-26.31957626342773	-50.06211090087891	881.5779418945312	49.86843490600586	-84.81807708740234	1042.828247070312	95.03826141357422	-82.09262084960938	703.7696533203125	-40.67782974243164	-50.43566513061523	775.3253173828125	-55.06367874145508	-27.95489692687988	774.9390258789062	14.18698406219482	-287.6461791992188	1657.123657226562	-5.426837921142578	-320.97900390625	1696.214721679688	-227.0490570068359	-225.0148468017578	1693.037963867188	-198.2890930175781	-402.375244140625	1666.11962890625	-87.29431915283203	-517.952392578125	963.1842041015625	-102.047233581543	-177.3513488769531	996.597900390625	30.48203468322754	-180.01318359375	1037.720825195312	-71.53557586669922	-438.864013671875	1010.689147949219	-179.6155700683594	-473.4313659667969	477.7502746582031	-100.609245300293	-493.3500366210938	622.6105346679688	-115.5229415893555	-601.9916381835938	135.8950347900391	229.0563049316406	-541.940185546875	315.2890319824219	52.97228622436523	-467.4653015136719	38.87273025512695	102.1027526855469	-457.757568359375	61.69215774536133	173.6510772705078	-565.3397827148438	60.18977355957031	134.021728515625	-579.2351684570312	182.8245544433594	290.1903991699219	-151.4921875	525.7423095703125	-129.198974609375	-130.6898345947266	784.5149536132812	-61.55093383789062	-172.3467712402344	31.03501319885254	-90.41502380371094	-156.7986297607422	403.8650207519531	-154.9230804443359	-163.9081115722656	41.54029846191406	-308.2398376464844	-218.0399475097656	41.10221862792969	-263.9874877929688	-119.9777755737305	30.67546653747559	-189.8711242675781	-245.4300079345703	35.45058441162109	-46.43460845947266	
308	3.07	-307.5058898925781	1027.770629882812	81.14954376220703	-418.71923828125	1029.036865234375	36.06707382202148	-384.7822570800781	1110.276977539062	57.60710525512695	-289.6820373535156	1303.66552734375	-171.0733947753906	-383.975341796875	1236.180541992188	64.34883117675781	-362.5143432617188	1499.3095703125	12.77425575256348	-296.236083984375	1420.506103515625	-142.2434692382812	-325.8297424316406	1355.49560546875	104.5653305053711	-472.2726745605469	1463.721313476562	-13.21598815917969	-488.7361145019531	1467.79443359375	-117.1602249145508	-576.4505615234375	1351.00830078125	-121.339111328125	-598.6337280273438	1141.151489257812	-143.5424194335938	-583.6103515625	1122.740478515625	-58.38876724243164	-489.337646484375	920.4864501953125	-219.3004760742188	-571.18017578125	901.124755859375	-236.2053375244141	-595.643310546875	1036.183959960938	-177.3596649169922	-488.238525390625	727.5977783203125	-236.7772521972656	-555.1423950195312	814.67724609375	-256.1155395507812	-487.785888671875	822.2656860351562	-266.5094299316406	-184.7245025634766	1457.06591796875	25.2785701751709	-132.7523040771484	1391.522827148438	68.75762939453125	-102.5192718505859	1112.404174804688	104.8738174438477	-196.5947570800781	1105.587280273438	93.53897094726562	-78.381591796875	897.1123657226562	-35.72970962524414	-44.14793014526367	882.983642578125	40.14871978759766	-78.51911163330078	1044.044555664062	86.52816009521484	-76.55728912353516	705.9161376953125	-51.70400238037109	-45.05461502075195	777.6053466796875	-65.65579986572266	-22.14668083190918	776.6727905273438	3.488844156265259	-282.9293518066406	1658.12841796875	-11.77628326416016	-317.3759155273438	1697.595336914062	-233.1416015625	-221.2678070068359	1694.358764648438	-204.8861083984375	-398.0757446289062	1667.272705078125	-93.02899169921875	-513.1883544921875	963.618896484375	-107.1615447998047	-172.0821533203125	997.8446655273438	23.02104377746582	-175.4132843017578	1038.760498046875	-79.07473754882812	-435.0714111328125	1011.633483886719	-185.1402435302734	-469.1368408203125	478.0122985839844	-113.4856414794922	-488.9779968261719	623.0771484375	-125.7210388183594	-596.7860717773438	144.134765625	223.9393463134766	-536.7950439453125	319.118408203125	43.27188491821289	-467.5621337890625	38.72883605957031	97.29133605957031	-455.7167358398438	64.74436187744141	167.701416015625	-563.825927734375	64.50960540771484	130.8069763183594	-571.6763916015625	192.0251770019531	283.1268615722656	-149.3364105224609	525.31494140625	-132.3045654296875	-126.8901290893555	784.776123046875	-67.57688140869141	-172.3144073486328	31.02046012878418	-90.41858673095703	-155.3100433349609	403.2901306152344	-157.1021881103516	-164.0207977294922	41.56620788574219	-308.2473754882812	-218.1152801513672	41.07796859741211	-263.9970397949219	-120.0130462646484	30.69802093505859	-189.8842468261719	-245.3684692382812	35.45687484741211	-46.35746383666992	
309	3.08	-302.0540466308594	1028.996704101562	74.61286163330078	-413.5350341796875	1030.026245117188	30.54484558105469	-379.4290466308594	1111.1826171875	51.73066711425781	-286.140380859375	1304.643310546875	-177.7388153076172	-378.265380859375	1237.147705078125	58.29848861694336	-357.3828125	1500.293823242188	6.733264923095703	-292.4429931640625	1421.447265625	-148.8214569091797	-319.8756103515625	1356.448608398438	98.19435882568359	-467.289794921875	1464.710571289062	-18.28703117370605	-484.7283630371094	1468.882080078125	-122.0749816894531	-572.7354736328125	1352.201293945312	-125.0718612670898	-595.9291381835938	1142.365844726562	-145.8324127197266	-579.856201171875	1124.533325195312	-60.78052520751953	-490.5747375488281	919.2998657226562	-220.4593200683594	-572.9383544921875	900.5225830078125	-235.4002532958984	-594.7195434570312	1036.88623046875	-178.2951965332031	-491.9707946777344	725.98388671875	-234.0434722900391	-558.2064208984375	813.459228515625	-253.8520660400391	-491.0444641113281	820.04638671875	-265.7207946777344	-179.5085296630859	1458.042114257812	17.7132511138916	-127.1124954223633	1392.622680664062	60.77441787719727	-96.07390594482422	1113.527954101562	96.73126220703125	-190.2559509277344	1106.585205078125	86.30841064453125	-73.00601196289062	899.0256958007812	-45.19821929931641	-38.23463439941406	884.3015747070312	30.32713890075684	-72.20296478271484	1045.164794921875	77.93059539794922	-71.09109497070312	707.9762573242188	-62.79570388793945	-39.78446578979492	779.7989501953125	-76.34017181396484	-16.37512969970703	778.3234252929688	-7.332638740539551	-278.3057556152344	1659.010864257812	-18.14755821228027	-313.8879699707031	1698.867797851562	-239.239013671875	-217.6396789550781	1695.5908203125	-211.5039978027344	-393.8706970214844	1668.289916992188	-98.76284790039062	-508.4795227050781	963.883544921875	-112.2884521484375	-166.9986114501953	998.924560546875	15.73798274993896	-170.9875946044922	1039.651245117188	-86.43023681640625	-431.4329528808594	1012.492065429688	-190.5235443115234	-464.9924926757812	478.4223022460938	-126.3318634033203	-484.7645874023438	623.6118774414062	-135.8650207519531	-590.9513549804688	152.1396179199219	218.3406982421875	-531.4635009765625	322.9151306152344	33.39495086669922	-467.9238586425781	38.90518188476562	91.11776733398438	-453.5512390136719	67.84957122802734	160.4003448486328	-562.22216796875	69.25653839111328	126.7772979736328	-563.3108520507812	200.5392761230469	275.6625671386719	-147.2852172851562	524.8534545898438	-135.4557647705078	-123.2625732421875	784.964111328125	-73.56059265136719	-172.2910766601562	31.03607749938965	-90.43721771240234	-153.925048828125	402.6934204101562	-159.34375	-164.1165161132812	41.56480026245117	-308.2736206054688	-218.1894073486328	41.02952575683594	-264.0149841308594	-120.0473175048828	30.71910858154297	-189.9012908935547	-245.315673828125	35.47726058959961	-46.29055023193359	
